<svg xmlns="http://www.w3.org/2000/svg" style="display: none;">
<!-- fleche debut -->
  <symbol id="first" viewBox="0 0 32 32"> 
    <path fill="currentColor" d="M28 4h2v24h-2zM5 28a1 1 0 0 1-1-1V5a1 1 0 0 1 1.501-.865l19 11a1 1 0 0 1 0 1.73l-19 11A.998.998 0 0 1 5 28z" />
  </symbol>
  <!-- fleche avant -->
    <symbol id="previous" viewBox="0 0 32 32">
    <path fill="currentColor" d="M7 28a1 1 0 0 1-1-1V5a1 1 0 0 1 1.482-.876l20 11a1 1 0 0 1 0 1.752l-20 11A1 1 0 0 1 7 28Z" />
  </symbol>
  <!-- fleche suivant -->
    <symbol id="next" viewBox="0 0 32 32">
    <path fill="currentColor" d="M7 28a1 1 0 0 1-1-1V5a1 1 0 0 1 1.482-.876l20 11a1 1 0 0 1 0 1.752l-20 11A1 1 0 0 1 7 28Z" />
  </symbol>
    <!-- fleche fin -->
  <symbol id="last" viewBox="0 0 32 32">
    <path fill="currentColor" d="M28 4h2v24h-2zM5 28a1 1 0 0 1-1-1V5a1 1 0 0 1 1.501-.865l19 11a1 1 0 0 1 0 1.73l-19 11A.998.998 0 0 1 5 28z" />
  </symbol>

  <!-- plus -->
  <symbol id="plus" viewBox="0 0 32 32">
  <path fill="currentColor" d="M16 4c6.6 0 12 5.4 12 12s-5.4 12-12 12S4 22.6 4 16S9.4 4 16 4m0-2C8.3 2 2 8.3 2 16s6.3 14 14 14s14-6.3 14-14S23.7 2 16 2z"/>
  <path fill="currentColor" d="M8 15h16v2H8z" />
  </symbol>

  <!-- minus -->
  <symbol id="minus" viewBox="0 0 32 32">
  <path fill="currentColor" d="M16 2A14.172 14.172 0 0 0 2 16a14.172 14.172 0 0 0 14 14a14.172 14.172 0 0 0 14-14A14.172 14.172 0 0 0 16 2Zm8 15h-7v7h-2v-7H8v-2h7V8h2v7h7Z"/>
  <path fill="none" d="M24 17h-7v7h-2v-7H8v-2h7V8h2v7h7v2z" />
  </symbol>

 <!-- share -->
  <symbol id="share" viewBox="0 0 32 32"> 
  <path fill="#FFFFFF" d="M23 20a5 5 0 0 0-3.89 1.89l-7.31-4.57a4.46 4.46 0 0 0 0-2.64l7.31-4.57A5 5 0 1 0 18 7a4.79 4.79 0 0 0 .2 1.32l-7.31 4.57a5 5 0 1 0 0 6.22l7.31 4.57A4.79 4.79 0 0 0 18 25a5 5 0 1 0 5-5Zm0-16a3 3 0 1 1-3 3a3 3 0 0 1 3-3ZM7 19a3 3 0 1 1 3-3a3 3 0 0 1-3 3Zm16 9a3 3 0 1 1 3-3a3 3 0 0 1-3 3Z"/>
  </symbol>

  <!-- cart -->

  <symbol id="cart" viewBox="0 0 24 24"> 
  <path fill="none" stroke="#FFFFFF" stroke-width="2" d="M5 5h17l-2 9H7L4 2H0m7 12l1 4h13m-2 5a1 1 0 1 1 0-2a1 1 0 0 1 0 2ZM9 23a1 1 0 1 1 0-2a1 1 0 0 1 0 2Z"/>
  </symbol>

  <!-- Sale timer -->
  <symbol id="timer" viewBox="0 0 32 32">
  <path fill="currentColor" d="M15 11h2v9h-2zm-2-9h6v2h-6z"/>
  <path fill="currentColor" d="m28 9l-1.42-1.41l-2.25 2.25a10.94 10.94 0 1 0 1.18 1.65ZM16 26a9 9 0 1 1 9-9a9 9 0 0 1-9 9Z"/></svg>
  <symbol>
  
</svg>
